<svg width="24" height="44" viewBox="0 0 24 44" fill="none" xmlns="http://www.w3.org/2000/svg">
<path d="M3 26H5M5 26H21M5 26V40C5 40.5304 5.21071 41.0391 5.58579 41.4142C5.96086 41.7893 6.46957 42 7 42H17C17.5304 42 18.0391 41.7893 18.4142 41.4142C18.7893 41.0391 19 40.5304 19 40V26H5ZM8 26V24C8 23.4696 8.21071 22.9609 8.58579 22.5858C8.96086 22.2107 9.46957 22 10 22H14C14.5304 22 15.0391 22.2107 15.4142 22.5858C15.7893 22.9609 16 23.4696 16 24V26M10 31V37M14 31V37" stroke="#101828" stroke-width="2" stroke-linecap="round" stroke-linejoin="round"/>
</svg>
